<svg width="38" height="37" viewBox="0 0 38 37" fill="none" xmlns="http://www.w3.org/2000/svg">
<path d="M20.3696 22.7409L28.5007 34.6664M16.6317 22.7409L8.50068 34.6664M21.834 19.9998C21.834 21.8407 20.3416 23.3331 18.5007 23.3331C16.6597 23.3331 15.1673 21.8407 15.1673 19.9998C15.1673 18.1588 16.6597 16.6665 18.5007 16.6665C20.3416 16.6665 21.834 18.1588 21.834 19.9998ZM27.0815 5.55358L7.44103 10.8162C6.99023 10.937 6.76482 10.9974 6.61614 11.1313C6.48536 11.2491 6.39522 11.4052 6.35863 11.5773C6.31703 11.773 6.37743 11.9984 6.49822 12.4492L7.96487 17.9228C8.08566 18.3736 8.14606 18.599 8.27993 18.7477C8.39768 18.8785 8.55382 18.9686 8.72595 19.0052C8.92165 19.0468 9.14705 18.9864 9.59786 18.8656L29.2384 13.603L27.0815 5.55358ZM34.8213 13.8325C33.0181 14.3156 32.1165 14.5572 31.3337 14.3909C30.6452 14.2445 30.0206 13.8839 29.5496 13.3608C29.0141 12.7661 28.7725 11.8645 28.2893 10.0612L28.0305 9.09531C27.5474 7.29208 27.3058 6.39047 27.4722 5.60769C27.6185 4.91914 27.9791 4.2946 28.5022 3.82358C29.0969 3.2881 29.9985 3.04651 31.8018 2.56334C32.2526 2.44255 32.478 2.38215 32.6737 2.42374C32.8458 2.46033 33.0019 2.55048 33.1197 2.68126C33.2536 2.82994 33.314 3.05534 33.4348 3.50615L35.7641 12.1995C35.8849 12.6503 35.9453 12.8757 35.9037 13.0714C35.8671 13.2435 35.777 13.3997 35.6462 13.5174C35.4975 13.6513 35.2721 13.7117 34.8213 13.8325ZM4.33686 18.5498L6.59069 17.9459C7.0415 17.8251 7.2669 17.7647 7.41558 17.6309C7.54636 17.5131 7.63651 17.357 7.67309 17.1848C7.71469 16.9891 7.65429 16.7637 7.5335 16.3129L6.92959 14.0591C6.8088 13.6083 6.7484 13.3829 6.61453 13.2342C6.49677 13.1034 6.34064 13.0133 6.1685 12.9767C5.97281 12.9351 5.7474 12.9955 5.2966 13.1163L3.04277 13.7202C2.59196 13.841 2.36656 13.9014 2.21788 14.0353C2.0871 14.153 1.99695 14.3092 1.96037 14.4813C1.91877 14.677 1.97917 14.9024 2.09996 15.3532L2.70387 17.607C2.82466 18.0578 2.88506 18.2832 3.01893 18.4319C3.13669 18.5627 3.29282 18.6528 3.46496 18.6894C3.66065 18.731 3.88606 18.6706 4.33686 18.5498Z" stroke="#3B82F6" stroke-width="3.33333" stroke-linecap="round" stroke-linejoin="round"/>
</svg>
