<svg width="21" height="22" viewBox="0 0 21 22" fill="none" xmlns="http://www.w3.org/2000/svg">
<path d="M7.68757 20C8.3927 20.6224 9.31895 21 10.3334 21C11.3478 21 12.2741 20.6224 12.9792 20M16.3334 7C16.3334 5.4087 15.7013 3.88258 14.576 2.75736C13.4508 1.63214 11.9247 1 10.3334 1C8.74209 1 7.21597 1.63214 6.09075 2.75736C4.96553 3.88258 4.33339 5.4087 4.33339 7C4.33339 10.0902 3.55386 12.206 2.68306 13.6054C1.94852 14.7859 1.58125 15.3761 1.59472 15.5408C1.60963 15.7231 1.64825 15.7926 1.79517 15.9016C1.92785 16 2.52598 16 3.72225 16H16.9445C18.1408 16 18.7389 16 18.8716 15.9016C19.0185 15.7926 19.0572 15.7231 19.0721 15.5408C19.0855 15.3761 18.7183 14.7859 17.9837 13.6054C17.1129 12.206 16.3334 10.0902 16.3334 7Z" stroke="#334155" stroke-width="2" stroke-linecap="round" stroke-linejoin="round"/>
</svg>
